<svg t="1695548958739" class="icon" viewBox="0 0 1024 1024" version="1.1" xmlns="http://www.w3.org/2000/svg" p-id="6167"
     width="800" height="800">
    <path d="M864 339.328l-336 202.88v408.448L512 960 128 736V320l384-224 384 224v286.656L864 576v-236.672z m-704 0.288v378.016l336 196V545.44L160 339.616z m352-206.56L190.368 320.64l318.976 195.392 323.968-195.584L512 133.056z"
          fill="#505050" p-id="6170" data-spm-anchor-id="a313x.search_index.0.i28.6afa3a81ZgkGVr"
          class="selected"></path>
    <path d="M753.856 789.76l-58.08 56.032c7.744 11.552 12.224 25.344 12.224 40.096 0 40.96-34.4 74.112-76.8 74.112-42.432 0-76.8-33.184-76.8-74.112s34.368-74.112 76.8-74.112c15.296 0 29.568 4.352 41.536 11.776l59.68-57.568-97.056-107.552 23.776-21.44 165.76 183.776c10.912-5.728 23.424-8.96 36.704-8.96 42.4 0 76.8 33.152 76.8 74.08 0 40.96-34.4 74.112-76.8 74.112-42.432 0-76.8-33.184-76.8-74.112 0-16.768 5.76-32.224 15.488-44.64l-46.432-51.488zM631.2 928c24.96 0 44.8-19.104 44.8-42.112 0-22.976-19.84-42.112-44.8-42.112-24.992 0-44.8 19.136-44.8 42.112 0 23.008 19.808 42.112 44.8 42.112z m230.4 0c24.96 0 44.8-19.104 44.8-42.112 0-22.976-19.84-42.112-44.8-42.112-24.992 0-44.8 19.136-44.8 42.112 0 23.008 19.808 42.112 44.8 42.112z m-67.456-184.48l-22.4-22.88 89.056-87.2 22.4 22.848-89.056 87.232z"
          fill="#505050" p-id="6171"></path>
</svg>